<svg width="188" height="215" viewBox="0 0 188 215" fill="#051229" xmlns="http://www.w3.org/2000/svg">
<path d="M148.805 43.1595C143.307 39.0924 140.034 32.0158 140.034 24.1944C140.034 12.2313 148.51 2.2347 159.698 0H27.5067C38.7094 2.2347 47.1703 12.2462 47.1703 24.2391C47.1703 31.986 43.7506 39.1669 38.0166 43.4575C13.1349 62.0204 -1.04534 91.727 0.0601856 122.923C1.81429 172.34 43.0725 213.22 92.0104 214.04C92.5411 214.04 93.0865 214.04 93.6171 214.04C118.337 214.04 141.582 204.43 159.226 186.881C177.254 168.958 187.204 145.002 187.204 119.437C187.204 89.4327 172.846 60.9179 148.805 43.1446V43.1595Z" fill="#051229"/>
</svg>
