<svg width="780" height="676" viewBox="0 0 780 676" fill="none" xmlns="http://www.w3.org/2000/svg">
<path d="M157.281 537.341C142.46 517.487 116.672 505.67 88.1687 505.67C44.573 505.67 8.14364 536.276 -2.52073e-05 576.677L-4.34176e-06 99.3279C8.14366 139.781 44.6273 170.334 88.3316 170.334C116.563 170.334 142.731 157.985 158.367 137.279C226.014 47.4306 334.27 -3.77475 447.956 0.217352C628.039 6.55149 777.014 155.537 780 332.254C780 334.17 780 336.139 780 338.055C780 427.319 744.982 511.259 681.027 574.973C615.715 640.071 528.415 676 435.252 676C325.909 676 221.996 624.156 157.227 537.341L157.281 537.341Z" fill="black"/>
</svg>
