<svg width="42" height="42" viewBox="0 0 42 42" fill="none" xmlns="http://www.w3.org/2000/svg">
<path opacity="0.2" fill-rule="evenodd" clip-rule="evenodd" d="M20.4758 0.391206C20.5447 0.159743 20.758 0 21 0C21.242 0 21.4553 0.159743 21.5242 0.391206C21.5242 0.391206 22.4835 3.60697 23.5118 7.05611C25.1503 12.5512 29.4488 16.8498 34.9439 18.4882C38.393 19.5165 41.6088 20.4758 41.6088 20.4758C41.8403 20.5447 42 20.758 42 21C42 21.242 41.8403 21.4553 41.6088 21.5242C41.6088 21.5242 38.393 22.4835 34.9439 23.5118C29.4488 25.1503 25.1503 29.4488 23.5118 34.9439C22.4835 38.393 21.5242 41.6088 21.5242 41.6088C21.4553 41.8403 21.242 42 21 42C20.758 42 20.5447 41.8403 20.4758 41.6088C20.4758 41.6088 19.5165 38.393 18.4882 34.9439C16.8497 29.4488 12.5512 25.1503 7.0561 23.5118C3.60697 22.4835 0.391206 21.5242 0.391206 21.5242C0.159729 21.4553 0 21.242 0 21C0 20.758 0.159729 20.5447 0.391206 20.4758C0.391206 20.4758 3.60697 19.5165 7.0561 18.4882C12.5512 16.8498 16.8497 12.5512 18.4882 7.05611C19.5165 3.60697 20.4758 0.391206 20.4758 0.391206Z" fill="#0075FF"/>
</svg>
